<svg width="24" height="24" viewBox="0 0 24 24" fill="none" xmlns="http://www.w3.org/2000/svg">
<g clip-path="url(#clip0_39_6607)">
<path fill-rule="evenodd" clip-rule="evenodd" d="M12 24C18.6275 24 24 18.6275 24 12C24 5.37258 18.6275 0 12 0C5.37258 0 0 5.37258 0 12C0 18.6275 5.37258 24 12 24ZM13.8892 6.60739C14.8324 6.7717 15.7344 7.06069 16.5759 7.45166C16.5833 7.45468 16.5893 7.4603 16.5929 7.46753C18.0839 9.68985 18.8198 12.1978 18.5449 15.0842C18.5442 15.0902 18.5423 15.0962 18.5392 15.1014C18.5362 15.1067 18.5321 15.1112 18.5272 15.1147C17.5271 15.8654 16.4111 16.4365 15.2263 16.8039C15.2179 16.8064 15.2089 16.8063 15.2007 16.8034C15.1924 16.8006 15.1853 16.7952 15.1801 16.788C14.9309 16.4362 14.7043 16.0655 14.5064 15.6763C14.5037 15.6709 14.5021 15.665 14.5018 15.6589C14.5014 15.6529 14.5024 15.6469 14.5045 15.6412C14.5066 15.6356 14.5099 15.6305 14.5141 15.6263C14.5183 15.6221 14.5234 15.6188 14.5288 15.6168C14.888 15.4797 15.2301 15.3148 15.559 15.1199C15.5648 15.1163 15.5698 15.1112 15.5733 15.1052C15.5768 15.0992 15.5788 15.0924 15.5791 15.0854C15.5794 15.0784 15.5781 15.0713 15.5752 15.065C15.5722 15.0587 15.5677 15.0532 15.5623 15.049C15.4925 14.9963 15.4237 14.9413 15.3577 14.8858C15.3517 14.8809 15.3443 14.8778 15.3367 14.8769C15.329 14.8759 15.3212 14.8773 15.3143 14.8807C13.1798 15.8803 10.8406 15.8803 8.68087 14.8807C8.6739 14.8775 8.66625 14.8763 8.65868 14.8773C8.6511 14.8783 8.6439 14.8815 8.63797 14.8864C8.57197 14.9413 8.50268 14.9963 8.43338 15.049C8.42797 15.0532 8.42362 15.0588 8.42078 15.0653C8.41792 15.0716 8.41665 15.0787 8.4171 15.0857C8.41747 15.0927 8.41965 15.0995 8.42325 15.1054C8.42685 15.1115 8.43187 15.1164 8.4378 15.1199C8.7678 15.3132 9.11205 15.4795 9.46733 15.6173C9.47288 15.6193 9.4779 15.6226 9.4821 15.6267C9.4863 15.6309 9.48952 15.6359 9.4917 15.6416C9.4938 15.6471 9.49477 15.6531 9.49447 15.6591C9.49417 15.6651 9.4926 15.6709 9.4899 15.6763C9.29572 16.0658 9.07012 16.4379 8.81565 16.7886C8.81025 16.7956 8.80298 16.8007 8.79473 16.8033C8.78648 16.8059 8.7777 16.8059 8.76945 16.8033C7.58663 16.4349 6.47236 15.8641 5.47337 15.1147C5.46863 15.111 5.46467 15.1063 5.46174 15.101C5.45881 15.0956 5.45696 15.0897 5.45633 15.0836C5.22588 12.587 5.69502 10.0587 7.40656 7.46639C7.41078 7.45957 7.41692 7.45423 7.42417 7.45109C8.2662 7.05955 9.16815 6.77057 10.1108 6.60626C10.1194 6.60486 10.1281 6.60618 10.1358 6.61003C10.1436 6.61387 10.1501 6.62007 10.1543 6.62778C10.2799 6.85343 10.3932 7.08611 10.4936 7.32474C11.494 7.17075 12.5111 7.17075 13.5114 7.32474C13.6016 7.10942 13.7303 6.83687 13.8458 6.62778C13.8501 6.62016 13.8566 6.6141 13.8643 6.61045C13.8721 6.60679 13.8808 6.60572 13.8892 6.60739ZM8.62642 12.2147C8.62642 12.9576 9.16267 13.5633 9.81277 13.5633C10.4733 13.5633 10.9991 12.9582 10.9991 12.2147C11.0096 11.4764 10.4783 10.8661 9.81277 10.8661C9.15225 10.8661 8.62642 11.4713 8.62642 12.2147ZM13.0126 12.2147C13.0126 12.9576 13.5482 13.5633 14.1989 13.5633C14.8649 13.5633 15.3852 12.9582 15.3852 12.2147C15.3956 11.4764 14.8643 10.8661 14.1989 10.8661C13.5378 10.8661 13.0126 11.4713 13.0126 12.2147Z" fill="#91A3B1"/>
</g>
<defs>
<clipPath id="clip0_39_6607">
<rect width="24" height="24" fill="white"/>
</clipPath>
</defs>
</svg>
