<svg width="24" height="24" viewBox="0 0 24 24" fill="none" xmlns="http://www.w3.org/2000/svg">
<g clip-path="url(#clip0_39_6614)">
<path d="M12 0C5.37253 0 0 5.37254 0 12C0 18.6275 5.37253 24 12 24C18.6275 24 24 18.6275 24 12C23.9999 5.37254 18.6273 0 12 0ZM8.79832 17.8015H6.16364V9.28942H8.79832V17.8015ZM7.46845 8.1747C6.60797 8.1747 5.91041 7.47145 5.91041 6.60409C5.91041 5.73662 6.60807 5.03342 7.46845 5.03342C8.32882 5.03342 9.0264 5.73662 9.0264 6.60409C9.0264 7.4715 8.3289 8.1747 7.46845 8.1747ZM18.6719 17.8015H16.05V13.3333C16.05 12.1079 15.5846 11.4238 14.6155 11.4238C13.5609 11.4238 13.0099 12.1363 13.0099 13.3333V17.8015H10.483V9.28942H13.0099V10.4359C13.0099 10.4359 13.7701 9.02977 15.5749 9.02977C17.3799 9.02977 18.672 10.1318 18.672 12.4117L18.6719 17.8015Z" fill="#91A3B1"/>
</g>
<defs>
<clipPath id="clip0_39_6614">
<rect width="24" height="24" fill="white"/>
</clipPath>
</defs>
</svg>
