<svg width="26" height="32" viewBox="0 0 26 32" fill="none" xmlns="http://www.w3.org/2000/svg">
<path id="Sui Symbol" fill-rule="evenodd" clip-rule="evenodd" d="M20.0324 13.346V13.3476C21.3372 14.9844 22.1176 17.058 22.1176 19.3128C22.1176 21.5676 21.314 23.7028 19.9732 25.3508L19.8576 25.4928L19.8272 25.3124C19.8012 25.1592 19.7704 25.004 19.7352 24.848C19.0644 21.9 16.878 19.372 13.28 17.3252C10.8504 15.9468 9.4596 14.2868 9.0944 12.4012C8.8584 11.1816 9.034 9.9568 9.3728 8.9076C9.7116 7.8588 10.2156 6.98 10.6436 6.4512L12.0432 4.7396C12.2888 4.4396 12.748 4.4396 12.9936 4.7396L20.0328 13.3464L20.0324 13.346ZM22.2464 11.636V11.6352L12.8648 0.1644C12.6856 -0.0548 12.3504 -0.0548 12.1712 0.1644L2.7896 11.6356V11.6364L2.7592 11.6744C1.0332 13.8164 0 16.5388 0 19.5024C0 26.4044 5.6044 32 12.518 32C19.4316 32 25.036 26.4044 25.036 19.5024C25.036 16.5388 24.0028 13.8164 22.2764 11.674L22.2456 11.636H22.2464ZM5.0348 13.3088L5.874 12.2824L5.8992 12.472C5.9192 12.622 5.9436 12.7728 5.9724 12.9244C6.5152 15.7732 8.4548 18.1484 11.6976 19.988C14.5164 21.592 16.1576 23.4368 16.6304 25.46C16.8276 26.3044 16.8628 27.1352 16.7776 27.8616L16.7724 27.9064L16.7316 27.9264C15.4596 28.548 14.0292 28.8968 12.5176 28.8968C7.216 28.8968 2.918 24.606 2.918 19.3128C2.918 17.0404 3.7104 14.952 5.0344 13.3092L5.0348 13.3088Z" fill="#F7F7F8"/>
</svg>
