<svg width="24" height="24" viewBox="0 0 24 24" fill="none" xmlns="http://www.w3.org/2000/svg">
<g clip-path="url(#clip0_39_6609)">
<path fill-rule="evenodd" clip-rule="evenodd" d="M12 24C18.6275 24 24 18.6275 24 12C24 5.37258 18.6275 0 12 0C5.37258 0 0 5.37258 0 12C0 18.6275 5.37258 24 12 24ZM9.315 16.9516L12.1978 17.0043C12.2024 17.0043 12.2117 17.0043 12.2116 17.0114C13.817 17.0413 15.3811 16.9473 16.9819 16.8305C18.2596 16.7412 18.5624 15.8159 18.7207 14.7125C18.9179 13.3799 18.9615 12.0311 18.8583 10.6894C18.8533 10.6257 18.8486 10.5616 18.8437 10.4969C18.7475 9.21307 18.6395 7.77023 17.1196 7.50428C16.7962 7.44698 16.466 7.39667 16.1381 7.38745C13.0328 7.28702 9.89985 7.26152 6.78763 7.47678C5.8657 7.53608 5.26954 8.08117 5.11805 8.99467C4.84972 10.6227 4.79467 12.2943 4.93687 13.936C4.93864 13.9561 4.94041 13.9762 4.94218 13.9964C5.04383 15.1514 5.1626 16.5008 6.53077 16.7799C7.26734 16.9328 8.01727 16.939 8.76863 16.9451C8.95072 16.9466 9.1329 16.948 9.315 16.9516ZM11.9991 13.3526C11.5025 13.6375 11.0048 13.9232 10.503 14.2108V10.0938C11.0563 10.4107 11.6058 10.7261 12.1558 11.0419C12.7982 11.4106 13.4412 11.7798 14.0923 12.1523C13.3916 12.5535 12.6965 12.9524 11.9991 13.3526Z" fill="#91A3B1"/>
</g>
<defs>
<clipPath id="clip0_39_6609">
<rect width="24" height="24" fill="white"/>
</clipPath>
</defs>
</svg>
