<svg width="32" height="32" viewBox="0 0 32 32" fill="none" xmlns="http://www.w3.org/2000/svg">
<path d="M0 8C0 3.58172 3.58172 0 8 0H24C28.4183 0 32 3.58172 32 8V24C32 28.4183 28.4183 32 24 32H8C3.58172 32 0 28.4183 0 24V8Z" fill="url(#paint0_linear_2046_9771)"/>
<path d="M13.4164 13V19.9908H11.3259V13.7911L10.3988 19.9908H7.01761L6.09051 13.7911V19.9908H4V13H7.91744L8.7082 19.025L9.49896 13H13.4164Z" fill="#020203"/>
<path d="M17.3311 19.0618L18.5218 13H21.0031L19.367 19.9908H15.2951L13.659 13H16.1404L17.3311 19.0618Z" fill="#020203"/>
<path d="M25.3914 19.9908L24.1189 17.774H23.5645V20H21.2376V13.0092H24.3189C24.946 13.0092 25.4914 13.1104 25.9549 13.3035C26.4185 13.4967 26.782 13.7727 27.0365 14.1314C27.291 14.4901 27.4183 14.9133 27.4183 15.3916C27.4183 15.8055 27.3274 16.1735 27.1456 16.5046C26.9638 16.8357 26.6912 17.1025 26.3367 17.3141L28 19.9908H25.3914ZM24.837 14.9777C24.7097 14.8673 24.5279 14.8121 24.2916 14.8121H23.5554V16.0079H24.2916C24.5279 16.0079 24.7097 15.9527 24.837 15.8423C24.9642 15.7319 25.0278 15.5848 25.0278 15.41C25.0278 15.2352 24.9642 15.088 24.837 14.9777Z" fill="#020203"/>
<defs>
<linearGradient id="paint0_linear_2046_9771" x1="0" y1="0" x2="32" y2="32" gradientUnits="userSpaceOnUse">
<stop stop-color="#C251FF"/>
<stop offset="1" stop-color="#4CA2FF"/>
</linearGradient>
</defs>
</svg>
