<svg width="240" height="240" viewBox="0 0 240 240" fill="none" xmlns="http://www.w3.org/2000/svg">
<g clip-path="url(#clip0_4002_1907)">
<rect width="240" height="240" rx="8" fill="#030F1C"/>
REPLACE_ME_WITH_TEXT
<path fill-rule="evenodd" clip-rule="evenodd" d="M28.016 211.563V211.564C28.6925 212.397 29.0603 213.432 29.059 214.498C29.059 215.606 28.657 216.656 27.9865 217.467L27.929 217.537L27.914 217.448C27.9006 217.372 27.8851 217.295 27.8675 217.219C27.5325 215.77 26.439 214.527 24.64 213.52C23.425 212.842 22.73 212.026 22.547 211.098C22.429 210.498 22.517 209.896 22.6865 209.381C22.856 208.864 23.108 208.432 23.3215 208.172L24.0215 207.331C24.1445 207.183 24.374 207.183 24.4965 207.331L28.0165 211.563H28.016ZM29.123 210.722L24.4325 205.08C24.4115 205.055 24.385 205.034 24.355 205.02C24.325 205.006 24.2922 204.999 24.259 204.999C24.2258 204.999 24.193 205.006 24.163 205.02C24.133 205.034 24.1065 205.055 24.0855 205.08L19.395 210.722L19.38 210.741C18.4852 211.831 17.9981 213.19 18 214.59C18 217.985 20.802 220.737 24.259 220.737C27.716 220.737 30.518 217.985 30.518 214.59C30.518 213.133 30.0015 211.794 29.138 210.741L29.123 210.722ZM20.5175 211.545L20.937 211.04L20.9495 211.133C20.9595 211.207 20.972 211.281 20.986 211.356C21.2575 212.757 22.2275 213.925 23.849 214.829C25.258 215.618 26.079 216.526 26.315 217.52C26.414 217.936 26.4315 218.344 26.389 218.702L26.386 218.723L26.366 218.733C25.7099 219.048 24.9891 219.211 24.259 219.21C21.608 219.21 19.459 217.1 19.459 214.498C19.459 213.38 19.8555 212.353 20.5175 211.545Z" fill="#F7F7F8"/>
<g fill-opacity="REPLACE_ME_WITH_OPACITY">
<text fill="white" xml:space="preserve" style="white-space: pre" font-family="Roboto Mono, monospace" font-size="10" letter-spacing="0em"><tspan x="36" y="217.384">linked</tspan></text>
</g>
</g>
<defs>
<clipPath id="clip0_4002_1907">
<path d="M0 8.00001C0 3.58173 3.58172 0 8 0H232C236.418 0 240 3.58172 240 8V232C240 236.418 236.418 240 232 240H8.00001C3.58173 240 0 236.418 0 232V8.00001Z" fill="white"/>
</clipPath>
</defs>
</svg>
