<svg width="240" height="240" viewBox="0 0 240 240" fill="none" xmlns="http://www.w3.org/2000/svg">
<g clip-path="url(#clip0_36_4187)">
<path d="M0 8.00001C0 3.58173 3.58172 0 8 0H232C236.418 0 240 3.58172 240 8V232C240 236.418 236.418 240 232 240H8.00001C3.58173 240 0 236.418 0 232V8.00001Z" fill="#030F1C"/>
<g clip-path="url(#clip1_36_4187)">
<path fill-rule="evenodd" clip-rule="evenodd" d="M216.093 210.924V210.925C216.91 211.931 217.354 213.18 217.352 214.467C217.352 215.806 216.867 217.074 216.057 218.052L215.988 218.136L215.97 218.03C215.954 217.937 215.935 217.845 215.914 217.753C215.509 216.003 214.189 214.502 212.017 213.287C210.55 212.469 209.711 211.483 209.49 210.363C209.347 209.639 209.454 208.912 209.658 208.289C209.863 207.666 210.167 207.144 210.425 206.83L211.27 205.814C211.419 205.636 211.696 205.636 211.844 205.814L216.094 210.924H216.093ZM217.429 209.909L211.766 203.097C211.741 203.066 211.709 203.042 211.673 203.025C211.637 203.008 211.597 202.999 211.557 202.999C211.517 202.999 211.477 203.008 211.441 203.025C211.405 203.042 211.373 203.066 211.347 203.097L205.684 209.909L205.666 209.931C204.586 211.247 203.998 212.888 204 214.579C204 218.677 207.383 222 211.557 222C215.731 222 219.114 218.677 219.114 214.579C219.114 212.82 218.49 211.203 217.448 209.931L217.429 209.909ZM207.04 210.902L207.546 210.292L207.561 210.405C207.573 210.494 207.588 210.583 207.605 210.674C207.933 212.366 209.104 213.775 211.062 214.868C212.763 215.82 213.754 216.916 214.039 218.117C214.159 218.618 214.18 219.111 214.129 219.543L214.125 219.569L214.101 219.581C213.309 219.961 212.438 220.158 211.557 220.157C208.356 220.157 205.762 217.61 205.762 214.467C205.762 213.117 206.24 211.878 207.04 210.902Z" fill="#F7F7F8"/>
</g>
REPLACE_ME_WITH_TEXT
<g fill-opacity="REPLACE_ME_WITH_OPACITY">
<text fill="white" xml:space="preserve" style="white-space: pre" font-family="Roboto Mono, monospace" font-size="10" letter-spacing="0em"><tspan x="37" y="216.384">linked</tspan></text>
<g clip-path="url(#clip2_36_4187)">
<path d="M28.6868 211.687C28.8821 211.492 28.8821 211.175 28.6868 210.98C28.4916 210.785 28.175 210.785 27.9798 210.98L25 213.96L24.0202 212.98C23.8249 212.785 23.5083 212.785 23.3131 212.98C23.1178 213.175 23.1178 213.492 23.3131 213.687L24.6464 215.02C24.8417 215.216 25.1582 215.216 25.3535 215.02L28.6868 211.687Z" fill="white"/>
<path fill-rule="evenodd" clip-rule="evenodd" d="M26 205.833C22.042 205.833 18.8334 209.042 18.8334 213C18.8334 216.958 22.042 220.167 26 220.167C29.9581 220.167 33.1667 216.958 33.1667 213C33.1667 209.042 29.9581 205.833 26 205.833ZM19.8334 213C19.8334 209.594 22.5943 206.833 26 206.833C29.4058 206.833 32.1667 209.594 32.1667 213C32.1667 216.406 29.4058 219.167 26 219.167C22.5943 219.167 19.8334 216.406 19.8334 213Z" fill="white"/>
</g>
</g>
</g>
<defs>
<clipPath id="clip0_36_4187">
<path d="M0 8.00001C0 3.58173 3.58172 0 8 0H232C236.418 0 240 3.58172 240 8V232C240 236.418 236.418 240 232 240H8.00001C3.58173 240 0 236.418 0 232V8.00001Z" fill="white"/>
</clipPath>
<clipPath id="clip1_36_4187">
<rect width="15.6957" height="19" fill="white" transform="translate(204 203)"/>
</clipPath>
<clipPath id="clip2_36_4187">
<rect width="16" height="16" fill="white" transform="translate(18 205)"/>
</clipPath>
</defs>
</svg>
